<svg width="1.5em" height="1.5em" viewBox="0 0 24 24" fill="none" focusable="false" xmlns="http://www.w3.org/2000/svg">
<path fill-rule="evenodd" clip-rule="evenodd" d="M6.96027 3.25C7.37448 3.25 7.71027 3.58579 7.71027 4V5.66763C10.538 5.4158 13.3825 5.4158 16.2103 5.66763V4C16.2103 3.58579 16.5461 3.25 16.9603 3.25C17.3745 3.25 17.7103 3.58579 17.7103 4V5.81644C19.2033 6.02754 20.3828 7.20847 20.5825 8.71484L20.6691 9.36779C21.0331 12.1141 21.0017 14.8984 20.5757 17.6359C20.3647 18.9919 19.263 20.0335 17.8973 20.1681L16.7043 20.2858C13.5492 20.5969 10.3712 20.5969 7.21619 20.2858L6.02319 20.1681C4.65745 20.0335 3.55579 18.9919 3.34478 17.6359C2.91882 14.8984 2.88738 12.1141 3.25141 9.36779L3.33797 8.71484C3.53764 7.20845 4.71719 6.02751 6.21027 5.81643V4C6.21027 3.58579 6.54605 3.25 6.96027 3.25ZM7.40543 7.2028C10.4346 6.90408 13.4859 6.90408 16.515 7.2028L17.4205 7.2921C18.2872 7.37757 18.9811 8.04854 19.0955 8.91194L19.1821 9.56489C19.2123 9.793 19.2397 10.0214 19.2641 10.25H4.65633C4.68081 10.0214 4.70817 9.79301 4.73841 9.5649L4.82496 8.91194C4.93941 8.04854 5.63323 7.37757 6.49998 7.2921L7.40543 7.2028ZM4.5371 11.75C4.43892 13.6381 4.53565 15.5332 4.82694 17.4052C4.93278 18.0854 5.48536 18.6078 6.1704 18.6754L7.3634 18.793C10.4205 19.0945 13.4999 19.0945 16.5571 18.793L17.7501 18.6754C18.4351 18.6078 18.9877 18.0854 19.0935 17.4052C19.3848 15.5332 19.4816 13.6381 19.3834 11.75H4.5371Z" fill="currentColor"/>
<path d="M10.169 18H14V16.951H12.7686V13H11.5533L10 14.2657L10.8129 15.021L11.159 14.7483C11.3119 14.6224 11.3843 14.4825 11.3843 14.4825H11.4004C11.4004 14.4825 11.3924 14.6783 11.3924 14.8671V16.951H10.169V18Z" fill="currentColor"/>
</svg>
