<svg width="1.5em" height="1.5em" viewBox="0 0 24 24" fill="none" xmlns="http://www.w3.org/2000/svg">
<path d="M13 15C12.4477 15 12 15.4477 12 16C12 16.5523 12.4477 17 13 17C13.5523 17 14 16.5523 14 16C14 15.4477 13.5523 15 13 15Z" fill="currentColor"/>
<path d="M9.99997 17C9.44768 17 8.99997 17.4477 8.99997 18C8.99997 18.5523 9.44768 19 9.99997 19C10.5523 19 11 18.5523 11 18C11 17.4477 10.5523 17 9.99997 17Z" fill="currentColor"/>
<path fill-rule="evenodd" clip-rule="evenodd" d="M14.4931 3.25001L14.4902 3.25H9.50977L9.50681 3.25001H8.49997C8.08576 3.25001 7.74997 3.58579 7.74997 4.00001C7.74997 4.41422 8.08576 4.75001 8.49997 4.75001H8.75977V9.83701C8.75977 11.2914 8.32236 12.7121 7.50437 13.9147L4.41058 18.4629C3.62493 19.6179 4.34916 21.194 5.73727 21.3502C9.89927 21.8184 14.1007 21.8184 18.2627 21.3502C19.6508 21.194 20.375 19.6179 19.5894 18.4629L16.4956 13.9147C15.6776 12.7121 15.2402 11.2914 15.2402 9.83701V4.75001H15.5C15.9142 4.75001 16.25 4.41422 16.25 4.00001C16.25 3.58579 15.9142 3.25001 15.5 3.25001H14.4931ZM5.90496 19.8596C9.95552 20.3153 14.0444 20.3153 18.095 19.8596C18.3609 19.8297 18.4996 19.5278 18.3491 19.3065L15.2553 14.7583C15.035 14.4345 14.8376 14.0976 14.6639 13.75H9.33608C9.1623 14.0976 8.9649 14.4345 8.74463 14.7583L5.65084 19.3065C5.50035 19.5278 5.63907 19.8297 5.90496 19.8596ZM9.92048 12.25H14.0795C13.8556 11.4697 13.7402 10.6578 13.7402 9.83701V4.75L10.2598 4.75001V9.83701C10.2598 10.6578 10.1443 11.4697 9.92048 12.25Z" fill="currentColor"/>
</svg>
