<svg width="1.5em" height="1.5em" viewBox="0 0 24 24" fill="none" focusable="false" xmlns="http://www.w3.org/2000/svg">
<path d="M14 8.99988C14 8.17145 14.6716 7.49988 15.5 7.49988C16.3284 7.49988 17 8.17145 17 8.99988C17 9.82831 16.3284 10.4999 15.5 10.4999C14.6716 10.4999 14 9.82831 14 8.99988Z" fill="currentColor"/>
<path fill-rule="evenodd" clip-rule="evenodd" d="M7.26753 4.65843C10.4166 4.38469 13.5834 4.38469 16.7325 4.65843L18.2427 4.78971C19.6878 4.91533 20.8585 6.01497 21.0742 7.44937C21.5278 10.4661 21.5278 13.5337 21.0742 16.5504C20.8585 17.9848 19.6878 19.0844 18.2427 19.21L16.7325 19.3413C13.5834 19.6151 10.4166 19.6151 7.26753 19.3413L5.7573 19.21C4.31223 19.0844 3.14156 17.9848 2.92586 16.5504C2.47222 13.5337 2.47222 10.4661 2.92586 7.44936C3.14156 6.01497 4.31223 4.91533 5.7573 4.78971L7.26753 4.65843ZM16.6026 6.15279C13.54 5.88657 10.46 5.88657 7.39743 6.1528L5.8872 6.28408C5.13287 6.34965 4.52178 6.92367 4.40919 7.67242C4.15165 9.38504 4.04786 11.1149 4.0978 12.8414L7.96967 8.96955C8.11572 8.82349 8.31556 8.74413 8.52203 8.7502C8.7285 8.75627 8.92332 8.84722 9.06055 9.00161L12.732 13.132L15.2628 12.2884C15.5459 12.194 15.8579 12.2764 16.0575 12.4982L19.5766 16.4083C19.582 16.3815 19.5867 16.3546 19.5908 16.3273C20.0222 13.4585 20.0222 10.5413 19.5908 7.67242C19.4782 6.92367 18.8671 6.34965 18.1128 6.28408L16.6026 6.15279ZM18.6202 17.5879L15.2711 13.8667L12.7372 14.7114C12.4525 14.8063 12.1388 14.7224 11.9394 14.4982L8.46788 10.5927L4.2242 14.8363C4.27298 15.3344 4.33464 15.8316 4.40919 16.3273C4.52178 17.0761 5.13287 17.6501 5.8872 17.7157L7.39744 17.847C10.46 18.1132 13.54 18.1132 16.6026 17.847L18.1128 17.7157C18.2915 17.7001 18.4622 17.6561 18.6202 17.5879Z" fill="currentColor"/>
</svg>
