<svg width="1.5em" height="1.5em" viewBox="0 0 24 24" fill="none" focusable="false" xmlns="http://www.w3.org/2000/svg">
<path fill-rule="evenodd" clip-rule="evenodd" d="M13.6642 6.34302C13.6642 6.75723 14 7.09302 14.4142 7.09302L16.9068 7.09302V9.58566C16.9068 9.99987 17.2426 10.3357 17.6568 10.3357C18.071 10.3357 18.4068 9.99987 18.4068 9.58566V6.34302C18.4068 5.9288 18.071 5.59302 17.6568 5.59302L14.4142 5.59302C14 5.59302 13.6642 5.9288 13.6642 6.34302Z" fill="currentColor"/>
<path fill-rule="evenodd" clip-rule="evenodd" d="M17.6568 13.6641C17.2426 13.6641 16.9068 13.9999 16.9068 14.4141L16.9068 16.9067L14.4142 16.9067C13.9999 16.9067 13.6642 17.2425 13.6642 17.6567C13.6642 18.071 13.9999 18.4067 14.4142 18.4067L17.6568 18.4067C18.071 18.4067 18.4068 18.071 18.4068 17.6567L18.4068 14.4141C18.4068 13.9999 18.071 13.6641 17.6568 13.6641Z" fill="currentColor"/>
<path fill-rule="evenodd" clip-rule="evenodd" d="M6.34311 13.6641C6.75732 13.6641 7.09311 13.9999 7.09311 14.4141L7.09311 16.9067L9.58575 16.9067C9.99996 16.9067 10.3357 17.2425 10.3357 17.6567C10.3357 18.071 9.99996 18.4067 9.58575 18.4067L6.34311 18.4067C5.92889 18.4067 5.59311 18.071 5.59311 17.6567L5.59311 14.4141C5.59311 13.9999 5.92889 13.6641 6.34311 13.6641Z" fill="currentColor"/>
<path fill-rule="evenodd" clip-rule="evenodd" d="M10.3357 6.34302C10.3357 6.75723 9.99993 7.09302 9.58572 7.09302L7.09308 7.09302L7.09308 9.58566C7.09308 9.99987 6.75729 10.3357 6.34308 10.3357C5.92887 10.3357 5.59308 9.99987 5.59308 9.58566L5.59308 6.34302C5.59308 5.9288 5.92887 5.59302 6.34308 5.59302L9.58572 5.59302C9.99993 5.59302 10.3357 5.9288 10.3357 6.34302Z" fill="currentColor"/>
</svg>
