<svg width="1.5em" height="1.5em" viewBox="0 0 24 24" fill="none" focusable="false" xmlns="http://www.w3.org/2000/svg">
<path fill-rule="evenodd" clip-rule="evenodd" d="M4.95726 5.19236C4.54566 6.52645 4.54566 7.97349 4.95726 9.30758C9.64158 9.75904 14.3585 9.75904 19.0428 9.30758C19.4544 7.97349 19.4544 6.52645 19.0428 5.19236C14.3585 4.74089 9.64158 4.74089 4.95726 5.19236ZM4.70877 3.70943C9.55804 3.2352 14.442 3.2352 19.2913 3.70943C19.8258 3.76171 20.2751 4.128 20.4393 4.63377C20.9889 6.32686 20.9889 8.17307 20.4393 9.86617C20.2751 10.3719 19.8258 10.7382 19.2913 10.7905C14.442 11.2647 9.55804 11.2647 4.70877 10.7905C4.17422 10.7382 3.72495 10.3719 3.56077 9.86617C3.01116 8.17307 3.01116 6.32686 3.56077 4.63377C3.72495 4.128 4.17422 3.76171 4.70877 3.70943Z" fill="currentColor"/>
<path fill-rule="evenodd" clip-rule="evenodd" d="M4.95726 14.6924C4.54566 16.0265 4.54566 17.4735 4.95726 18.8076C9.64158 19.259 14.3585 19.259 19.0428 18.8076C19.4544 17.4735 19.4544 16.0265 19.0428 14.6924C14.3585 14.2409 9.64158 14.2409 4.95726 14.6924ZM4.70877 13.2094C9.55804 12.7352 14.442 12.7352 19.2913 13.2094C19.8258 13.2617 20.2751 13.628 20.4393 14.1338C20.9889 15.8269 20.9889 17.6731 20.4393 19.3662C20.2751 19.8719 19.8258 20.2382 19.2913 20.2905C14.442 20.7647 9.55804 20.7647 4.70877 20.2905C4.17422 20.2382 3.72495 19.8719 3.56077 19.3662C3.01116 17.6731 3.01116 15.8269 3.56077 14.1338C3.72495 13.628 4.17422 13.2617 4.70877 13.2094Z" fill="currentColor"/>
</svg>
