<svg width="1.5em" height="1.5em" viewBox="0 0 24 24" fill="none" focusable="false" xmlns="http://www.w3.org/2000/svg">
<path fill-rule="evenodd" clip-rule="evenodd" d="M19.8064 5.37072C20.4738 5.85234 20.945 6.59094 21.0741 7.44945C21.1194 7.7503 21.1601 8.05166 21.1963 8.35342C21.4765 10.9563 21.4639 13.9581 21.0741 16.5505C20.8584 17.9849 19.6878 19.0845 18.2427 19.2101L16.7325 19.3414C13.5834 19.6151 10.4165 19.6151 7.2675 19.3414L5.75727 19.2101C4.3122 19.0845 3.14153 17.9849 2.92583 16.5505C2.53601 13.9581 2.52352 10.9562 2.80366 8.35326C2.83988 8.05155 2.8806 7.75025 2.92583 7.44945C3.05475 6.59213 3.52483 5.85438 4.19074 5.37272L4.18997 5.36599L4.23723 5.33973C4.40973 5.21966 4.59482 5.11653 4.79005 5.03261L9.20599 2.57931C10.9426 1.61451 13.0543 1.61451 14.7909 2.57931L19.1966 5.02695C19.4012 5.11377 19.5948 5.22167 19.7746 5.34802L19.807 5.36602L19.8064 5.37072ZM18.9655 6.61448L14.0624 3.89054C12.7788 3.17744 11.2181 3.17744 9.93446 3.89054L5.04279 6.60814C4.70931 6.85975 4.47472 7.23651 4.40915 7.67251C4.39746 7.75028 4.38608 7.82808 4.37502 7.90592L9.93596 10.9953C11.2196 11.7084 12.7803 11.7084 14.0639 10.9953L19.6249 7.90589C19.6139 7.82806 19.6025 7.75027 19.5908 7.67251C19.5258 7.24016 19.2946 6.86606 18.9655 6.61448ZM19.7055 15.4805C19.9439 13.5015 19.9782 11.5042 19.8085 9.51987L14.7924 12.3066C13.0558 13.2714 10.9441 13.2714 9.20749 12.3066L4.19147 9.5199C4.02175 11.5042 4.05609 13.5015 4.29449 15.4805C4.32854 15.7632 4.36677 16.0456 4.40915 16.3274C4.43315 16.487 4.47979 16.6386 4.54563 16.7791C4.78873 17.2977 5.29361 17.6642 5.88717 17.7158L7.3974 17.847C10.46 18.1133 13.5399 18.1133 16.6026 17.8471L18.1128 17.7158C18.5842 17.6748 18.9997 17.4352 19.2726 17.0785C19.4363 16.8644 19.5486 16.6082 19.5908 16.3274C19.6332 16.0456 19.6714 15.7632 19.7055 15.4805Z" fill="currentColor"/>
</svg>
