<svg width="1.5em" height="1.5em" viewBox="0 0 24 24" fill="none" focusable="false" xmlns="http://www.w3.org/2000/svg">
<path d="M17.7501 11C17.0597 11 16.5001 11.5596 16.5001 12.25C16.5001 12.9403 17.0597 13.5 17.7501 13.5C18.4404 13.5 19.0001 12.9403 19.0001 12.25C19.0001 11.5596 18.4404 11 17.7501 11Z" fill="currentColor"/>
<path fill-rule="evenodd" clip-rule="evenodd" d="M4.1732 8.11529L6.25006 7.88446V3.91299C6.25006 3.2697 6.74012 2.73233 7.38068 2.6732C10.4537 2.38953 13.5464 2.38953 16.6194 2.6732C17.26 2.73233 17.7501 3.2697 17.7501 3.91299V7.88445L19.827 8.11529C20.5933 8.20047 21.2255 8.75389 21.4113 9.5022C21.9771 11.781 21.9771 14.1637 21.4113 16.4425L21.228 17.1807C21.1449 17.5152 20.8447 17.75 20.5001 17.75H17.7501V20.083C17.7501 20.705 17.2787 21.2259 16.6597 21.2877C13.561 21.5976 10.4391 21.5976 7.34037 21.2877C6.72142 21.2259 6.25006 20.705 6.25006 20.083V17.75H3.50009C3.15548 17.75 2.85523 17.5152 2.77219 17.1807L2.5889 16.4425C2.0231 14.1637 2.0231 11.781 2.5889 9.5022C2.7747 8.75389 3.40688 8.20047 4.1732 8.11529ZM16.2501 7.73954C13.4215 7.5076 10.5786 7.5076 7.75006 7.73954V4.14604C10.578 3.89859 13.4221 3.89859 16.2501 4.14604V7.73954ZM16.2501 16.5016C16.2482 16.3437 16.147 16.2077 16.0034 16.1569C13.3397 15.9208 10.6604 15.9208 7.9968 16.1569C7.85183 16.2081 7.75009 16.3462 7.75009 16.506V17L7.75006 17.0063V19.8205C10.5771 20.0867 13.423 20.0867 16.2501 19.8205V16.5016ZM19.9135 16.25H17.7501V15.917C17.7501 15.2949 17.2787 14.7741 16.6597 14.7122C16.5243 14.6987 16.3889 14.6857 16.2534 14.6734C16.1966 14.6618 16.1388 14.6528 16.0802 14.6465C13.368 14.3543 10.6322 14.3543 7.91998 14.6465C7.86135 14.6528 7.8036 14.6618 7.74684 14.6733C7.61131 14.6857 7.47582 14.6987 7.34037 14.7122C6.72142 14.7741 6.25006 15.2949 6.25006 15.917V16.25H4.08664L4.0447 16.081C3.53783 14.0396 3.53783 11.9051 4.0447 9.86366C4.0792 9.7247 4.1966 9.62193 4.3389 9.60611L6.42123 9.37467C10.1291 8.96255 13.8711 8.96255 17.5789 9.37467L19.6613 9.60611C19.8036 9.62193 19.921 9.7247 19.9555 9.86366C20.4623 11.9051 20.4623 14.0396 19.9555 16.081L19.9135 16.25Z" fill="currentColor"/>
</svg>
