<svg  width="1.5em" height="1.5em" viewBox="0 0 24 24" fill="none" focusable="false" xmlns="http://www.w3.org/2000/svg">
<path fill-rule="evenodd" clip-rule="evenodd" d="M6.06668 3.87384C5.36399 3.79531 4.636 3.79531 3.93331 3.87384C3.92026 3.8753 3.90735 3.88121 3.89674 3.89167C3.88637 3.90189 3.88233 3.91222 3.8813 3.92098C3.79746 4.63786 3.79746 5.36206 3.8813 6.07893C3.88233 6.0877 3.88637 6.09802 3.89674 6.10824C3.90735 6.1187 3.92026 6.12461 3.93331 6.12607C4.636 6.2046 5.36399 6.2046 6.06668 6.12607C6.07973 6.12461 6.09264 6.1187 6.10325 6.10824C6.11362 6.09802 6.11766 6.0877 6.11869 6.07893C6.20253 5.36206 6.20253 4.63786 6.11869 3.92098C6.11766 3.91222 6.11362 3.90189 6.10325 3.89167C6.09264 3.88121 6.07973 3.8753 6.06668 3.87384ZM3.7667 2.38312C4.58012 2.29221 5.41988 2.29221 6.23329 2.38312C6.94561 2.46274 7.52391 3.02317 7.60853 3.74673C7.70592 4.57938 7.70592 5.42053 7.60853 6.25318C7.52391 6.97674 6.94561 7.53717 6.23329 7.61679C5.41988 7.7077 4.58012 7.7077 3.76671 7.61679C3.05438 7.53717 2.47609 6.97674 2.39146 6.25318C2.29407 5.42053 2.29407 4.57938 2.39146 3.74673C2.47609 3.02317 3.05438 2.46274 3.7667 2.38312Z" fill="currentColor"/>
<path fill-rule="evenodd" clip-rule="evenodd" d="M13.0667 3.87384C12.364 3.79531 11.636 3.79531 10.9333 3.87384C10.9203 3.8753 10.9074 3.88121 10.8967 3.89167C10.8864 3.90189 10.8823 3.91222 10.8813 3.92098C10.7975 4.63786 10.7975 5.36206 10.8813 6.07893C10.8823 6.0877 10.8864 6.09802 10.8967 6.10824C10.9074 6.1187 10.9203 6.12461 10.9333 6.12607C11.636 6.2046 12.364 6.2046 13.0667 6.12607C13.0797 6.12461 13.0926 6.1187 13.1033 6.10824C13.1136 6.09802 13.1177 6.0877 13.1187 6.07893C13.2025 5.36206 13.2025 4.63786 13.1187 3.92098C13.1177 3.91222 13.1136 3.90189 13.1033 3.89167C13.0926 3.88121 13.0797 3.8753 13.0667 3.87384ZM10.7667 2.38312C11.5801 2.29221 12.4199 2.29221 13.2333 2.38312C13.9456 2.46274 14.5239 3.02317 14.6085 3.74673C14.7059 4.57938 14.7059 5.42053 14.6085 6.25318C14.5239 6.97674 13.9456 7.53717 13.2333 7.61679C12.4199 7.7077 11.5801 7.7077 10.7667 7.61679C10.0544 7.53717 9.47609 6.97674 9.39146 6.25318C9.29407 5.42053 9.29407 4.57938 9.39146 3.74673C9.47609 3.02317 10.0544 2.46274 10.7667 2.38312Z" fill="currentColor"/>
<path fill-rule="evenodd" clip-rule="evenodd" d="M20.0667 3.87384C19.364 3.79531 18.636 3.79531 17.9333 3.87384C17.9203 3.8753 17.9074 3.88121 17.8967 3.89167C17.8864 3.90189 17.8823 3.91222 17.8813 3.92098C17.7975 4.63786 17.7975 5.36206 17.8813 6.07893C17.8823 6.0877 17.8864 6.09802 17.8967 6.10824C17.9074 6.1187 17.9203 6.12461 17.9333 6.12607C18.636 6.2046 19.364 6.2046 20.0667 6.12607C20.0797 6.12461 20.0926 6.1187 20.1033 6.10824C20.1136 6.09802 20.1177 6.0877 20.1187 6.07893C20.2025 5.36206 20.2025 4.63786 20.1187 3.92098C20.1177 3.91222 20.1136 3.90189 20.1033 3.89167C20.0926 3.88121 20.0797 3.8753 20.0667 3.87384ZM17.7667 2.38312C18.5801 2.29221 19.4199 2.29221 20.2333 2.38312C20.9456 2.46274 21.5239 3.02317 21.6085 3.74673C21.7059 4.57938 21.7059 5.42053 21.6085 6.25318C21.5239 6.97674 20.9456 7.53717 20.2333 7.61679C19.4199 7.7077 18.5801 7.7077 17.7667 7.61679C17.0544 7.53717 16.4761 6.97674 16.3915 6.25318C16.2941 5.42053 16.2941 4.57938 16.3915 3.74673C16.4761 3.02317 17.0544 2.46274 17.7667 2.38312Z" fill="currentColor"/>
<path fill-rule="evenodd" clip-rule="evenodd" d="M6.06668 10.8738C5.36399 10.7953 4.636 10.7953 3.93331 10.8738C3.92026 10.8753 3.90735 10.8812 3.89674 10.8917C3.88637 10.9019 3.88233 10.9122 3.8813 10.921C3.79746 11.6379 3.79746 12.3621 3.8813 13.0789C3.88233 13.0877 3.88637 13.098 3.89674 13.1082C3.90735 13.1187 3.92026 13.1246 3.93331 13.1261C4.636 13.2046 5.36399 13.2046 6.06668 13.1261C6.07973 13.1246 6.09264 13.1187 6.10325 13.1082C6.11362 13.098 6.11766 13.0877 6.11869 13.0789C6.20253 12.3621 6.20253 11.6379 6.11869 10.921C6.11766 10.9122 6.11362 10.9019 6.10325 10.8917C6.09264 10.8812 6.07973 10.8753 6.06668 10.8738ZM3.7667 9.38312C4.58012 9.29221 5.41988 9.29221 6.23329 9.38312C6.94561 9.46274 7.52391 10.0232 7.60853 10.7467C7.70592 11.5794 7.70592 12.4205 7.60853 13.2532C7.52391 13.9767 6.94561 14.5372 6.23329 14.6168C5.41988 14.7077 4.58012 14.7077 3.76671 14.6168C3.05438 14.5372 2.47609 13.9767 2.39146 13.2532C2.29407 12.4205 2.29407 11.5794 2.39146 10.7467C2.47609 10.0232 3.05438 9.46274 3.7667 9.38312Z" fill="currentColor"/>
<path fill-rule="evenodd" clip-rule="evenodd" d="M13.0667 10.8738C12.364 10.7953 11.636 10.7953 10.9333 10.8738C10.9203 10.8753 10.9074 10.8812 10.8967 10.8917C10.8864 10.9019 10.8823 10.9122 10.8813 10.921C10.7975 11.6379 10.7975 12.3621 10.8813 13.0789C10.8823 13.0877 10.8864 13.098 10.8967 13.1082C10.9074 13.1187 10.9203 13.1246 10.9333 13.1261C11.636 13.2046 12.364 13.2046 13.0667 13.1261C13.0797 13.1246 13.0926 13.1187 13.1033 13.1082C13.1136 13.098 13.1177 13.0877 13.1187 13.0789C13.2025 12.3621 13.2025 11.6379 13.1187 10.921C13.1177 10.9122 13.1136 10.9019 13.1033 10.8917C13.0926 10.8812 13.0797 10.8753 13.0667 10.8738ZM10.7667 9.38312C11.5801 9.29221 12.4199 9.29221 13.2333 9.38312C13.9456 9.46274 14.5239 10.0232 14.6085 10.7467C14.7059 11.5794 14.7059 12.4205 14.6085 13.2532C14.5239 13.9767 13.9456 14.5372 13.2333 14.6168C12.4199 14.7077 11.5801 14.7077 10.7667 14.6168C10.0544 14.5372 9.47609 13.9767 9.39146 13.2532C9.29407 12.4205 9.29407 11.5794 9.39146 10.7467C9.47609 10.0232 10.0544 9.46274 10.7667 9.38312Z" fill="currentColor"/>
<path fill-rule="evenodd" clip-rule="evenodd" d="M20.0667 10.8738C19.364 10.7953 18.636 10.7953 17.9333 10.8738C17.9203 10.8753 17.9074 10.8812 17.8967 10.8917C17.8864 10.9019 17.8823 10.9122 17.8813 10.921C17.7975 11.6379 17.7975 12.3621 17.8813 13.0789C17.8823 13.0877 17.8864 13.098 17.8967 13.1082C17.9074 13.1187 17.9203 13.1246 17.9333 13.1261C18.636 13.2046 19.364 13.2046 20.0667 13.1261C20.0797 13.1246 20.0926 13.1187 20.1033 13.1082C20.1136 13.098 20.1177 13.0877 20.1187 13.0789C20.2025 12.3621 20.2025 11.6379 20.1187 10.921C20.1177 10.9122 20.1136 10.9019 20.1033 10.8917C20.0926 10.8812 20.0797 10.8753 20.0667 10.8738ZM17.7667 9.38312C18.5801 9.29221 19.4199 9.29221 20.2333 9.38312C20.9456 9.46274 21.5239 10.0232 21.6085 10.7467C21.7059 11.5794 21.7059 12.4205 21.6085 13.2532C21.5239 13.9767 20.9456 14.5372 20.2333 14.6168C19.4199 14.7077 18.5801 14.7077 17.7667 14.6168C17.0544 14.5372 16.4761 13.9767 16.3915 13.2532C16.2941 12.4205 16.2941 11.5794 16.3915 10.7467C16.4761 10.0232 17.0544 9.46274 17.7667 9.38312Z" fill="currentColor"/>
<path fill-rule="evenodd" clip-rule="evenodd" d="M6.06668 17.8738C5.36399 17.7953 4.636 17.7953 3.93331 17.8738C3.92026 17.8753 3.90735 17.8812 3.89674 17.8917C3.88637 17.9019 3.88233 17.9122 3.8813 17.921C3.79746 18.6379 3.79746 19.3621 3.8813 20.0789C3.88233 20.0877 3.88637 20.098 3.89674 20.1082C3.90735 20.1187 3.92026 20.1246 3.93331 20.1261C4.636 20.2046 5.36399 20.2046 6.06668 20.1261C6.07973 20.1246 6.09264 20.1187 6.10325 20.1082C6.11362 20.098 6.11766 20.0877 6.11869 20.0789C6.20253 19.3621 6.20253 18.6379 6.11869 17.921C6.11766 17.9122 6.11362 17.9019 6.10325 17.8917C6.09264 17.8812 6.07973 17.8753 6.06668 17.8738ZM3.7667 16.3831C4.58012 16.2922 5.41988 16.2922 6.23329 16.3831C6.94561 16.4627 7.52391 17.0232 7.60853 17.7467C7.70592 18.5794 7.70592 19.4205 7.60853 20.2532C7.52391 20.9767 6.94561 21.5372 6.23329 21.6168C5.41988 21.7077 4.58012 21.7077 3.76671 21.6168C3.05438 21.5372 2.47609 20.9767 2.39146 20.2532C2.29407 19.4205 2.29407 18.5794 2.39146 17.7467C2.47609 17.0232 3.05438 16.4627 3.7667 16.3831Z" fill="currentColor"/>
<path fill-rule="evenodd" clip-rule="evenodd" d="M13.0667 17.8738C12.364 17.7953 11.636 17.7953 10.9333 17.8738C10.9203 17.8753 10.9074 17.8812 10.8967 17.8917C10.8864 17.9019 10.8823 17.9122 10.8813 17.921C10.7975 18.6379 10.7975 19.3621 10.8813 20.0789C10.8823 20.0877 10.8864 20.098 10.8967 20.1082C10.9074 20.1187 10.9203 20.1246 10.9333 20.1261C11.636 20.2046 12.364 20.2046 13.0667 20.1261C13.0797 20.1246 13.0926 20.1187 13.1033 20.1082C13.1136 20.098 13.1177 20.0877 13.1187 20.0789C13.2025 19.3621 13.2025 18.6379 13.1187 17.921C13.1177 17.9122 13.1136 17.9019 13.1033 17.8917C13.0926 17.8812 13.0797 17.8753 13.0667 17.8738ZM10.7667 16.3831C11.5801 16.2922 12.4199 16.2922 13.2333 16.3831C13.9456 16.4627 14.5239 17.0232 14.6085 17.7467C14.7059 18.5794 14.7059 19.4205 14.6085 20.2532C14.5239 20.9767 13.9456 21.5372 13.2333 21.6168C12.4199 21.7077 11.5801 21.7077 10.7667 21.6168C10.0544 21.5372 9.47609 20.9767 9.39146 20.2532C9.29407 19.4205 9.29407 18.5794 9.39146 17.7467C9.47609 17.0232 10.0544 16.4627 10.7667 16.3831Z" fill="currentColor"/>
<path fill-rule="evenodd" clip-rule="evenodd" d="M20.0667 17.8738C19.364 17.7953 18.636 17.7953 17.9333 17.8738C17.9203 17.8753 17.9074 17.8812 17.8967 17.8917C17.8864 17.9019 17.8823 17.9122 17.8813 17.921C17.7975 18.6379 17.7975 19.3621 17.8813 20.0789C17.8823 20.0877 17.8864 20.098 17.8967 20.1082C17.9074 20.1187 17.9203 20.1246 17.9333 20.1261C18.636 20.2046 19.364 20.2046 20.0667 20.1261C20.0797 20.1246 20.0926 20.1187 20.1033 20.1082C20.1136 20.098 20.1177 20.0877 20.1187 20.0789C20.2025 19.3621 20.2025 18.6379 20.1187 17.921C20.1177 17.9122 20.1136 17.9019 20.1033 17.8917C20.0926 17.8812 20.0797 17.8753 20.0667 17.8738ZM17.7667 16.3831C18.5801 16.2922 19.4199 16.2922 20.2333 16.3831C20.9456 16.4627 21.5239 17.0232 21.6085 17.7467C21.7059 18.5794 21.7059 19.4205 21.6085 20.2532C21.5239 20.9767 20.9456 21.5372 20.2333 21.6168C19.4199 21.7077 18.5801 21.7077 17.7667 21.6168C17.0544 21.5372 16.4761 20.9767 16.3915 20.2532C16.2941 19.4205 16.2941 18.5794 16.3915 17.7467C16.4761 17.0232 17.0544 16.4627 17.7667 16.3831Z" fill="currentColor"/>
</svg>
