<svg width="1.5em" height="1.5em" viewBox="0 0 24 24" fill="none" xmlns="http://www.w3.org/2000/svg">
<path d="M8.8901 15.4026C8.3419 15.4697 7.95185 15.9684 8.01889 16.5166C8.08593 17.0648 8.58469 17.4549 9.13289 17.3879C9.68109 17.3208 10.0711 16.8221 10.0041 16.2739C9.93706 15.7257 9.4383 15.3356 8.8901 15.4026Z" fill="currentColor"/>
<path d="M5.54813 12.789C5.48108 12.2408 5.87114 11.7421 6.41934 11.675C6.96754 11.608 7.46629 11.998 7.53334 12.5462C7.60038 13.0944 7.21032 13.5932 6.66212 13.6602C6.11392 13.7273 5.61517 13.3372 5.54813 12.789Z" fill="currentColor"/>
<path d="M7.91897 7.46182C7.37077 7.52886 6.98072 8.02762 7.04776 8.57582C7.1148 9.12402 7.61356 9.51407 8.16176 9.44703C8.70996 9.37999 9.10001 8.88123 9.03297 8.33303C8.96593 7.78483 8.46717 7.39478 7.91897 7.46182Z" fill="currentColor"/>
<path d="M15.6973 9.28105C15.6303 8.73285 16.0203 8.23409 16.5685 8.16705C17.1167 8.10001 17.6155 8.49006 17.6825 9.03826C17.7496 9.58646 17.3595 10.0852 16.8113 10.1523C16.2631 10.2193 15.7644 9.82925 15.6973 9.28105Z" fill="currentColor"/>
<path d="M11.9926 10.8786C11.4444 10.9456 11.0544 11.4444 11.1214 11.9926C11.1885 12.5408 11.6872 12.9308 12.2354 12.8638C12.7836 12.7967 13.1737 12.298 13.1066 11.7498C13.0396 11.2016 12.5408 10.8115 11.9926 10.8786Z" fill="currentColor"/>
<path d="M11.3931 7.03694C11.3261 6.48874 11.7161 5.98998 12.2643 5.92294C12.8125 5.8559 13.3113 6.24595 13.3783 6.79415C13.4453 7.34235 13.0553 7.84111 12.5071 7.90815C11.9589 7.97519 11.4601 7.58514 11.3931 7.03694Z" fill="currentColor"/>
<path fill-rule="evenodd" clip-rule="evenodd" d="M2.25292 11.7637C2.38342 6.38046 6.85315 2.1223 12.2363 2.2528C17.6195 2.38329 21.8777 6.85302 21.7472 12.2362C21.7389 12.5772 21.6243 12.8886 21.4132 13.1451C21.2113 13.3903 20.9499 13.5512 20.6919 13.6589C20.1899 13.8684 19.5606 13.9341 18.9379 13.9384C16.2493 13.9565 13.9139 16.2692 13.7613 18.9967C13.7257 19.633 13.6172 20.2803 13.3433 20.7888C13.2015 21.0521 13.0023 21.3027 12.7234 21.484C12.4378 21.6697 12.1102 21.7555 11.7638 21.7471C6.38058 21.6166 2.12243 17.1468 2.25292 11.7637ZM12.2 3.75236C7.64498 3.64194 3.8629 7.24499 3.75248 11.8C3.64206 16.355 7.24511 20.1371 11.8001 20.2475C11.8682 20.2492 11.8934 20.2345 11.9058 20.2265C11.9248 20.2141 11.9688 20.1776 12.0226 20.0777C12.14 19.8597 12.2321 19.4757 12.2636 18.9129C12.4581 15.438 15.4045 12.4622 18.9278 12.4384C19.4899 12.4346 19.8843 12.3705 20.114 12.2746C20.1952 12.2408 20.2331 12.2121 20.2477 12.1991C20.3576 7.64443 16.7547 3.86277 12.2 3.75236Z" fill="currentColor"/>
</svg>
