<svg width="1.5em" height="1.5em" viewBox="0 0 24 24" fill="none" focusable="false" xmlns="http://www.w3.org/2000/svg">
<path d="M9.99999 3.01782C9.58578 3.01782 9.24999 2.68204 9.24999 2.26782C9.24999 1.85361 9.58578 1.51782 9.99999 1.51782H13.5355C13.9497 1.51782 14.2855 1.85361 14.2855 2.26782C14.2855 2.68204 13.9497 3.01782 13.5355 3.01782H9.99999Z" fill="currentColor"/>
<path d="M6.53033 3.46973C6.82322 3.76262 6.82322 4.23749 6.53033 4.53039L4.03033 7.03039C3.73744 7.32328 3.26256 7.32328 2.96967 7.03039C2.67678 6.73749 2.67678 6.26262 2.96967 5.96973L5.46967 3.46973C5.76256 3.17683 6.23744 3.17683 6.53033 3.46973Z" fill="currentColor"/>
<path d="M12 5.75006C7.99594 5.75006 4.75 8.99599 4.75 13.0001C4.75 17.0041 7.99594 20.2501 12 20.2501C16.0041 20.2501 19.25 17.0041 19.25 13.0001C19.25 12.5858 19.5858 12.2501 20 12.2501C20.4142 12.2501 20.75 12.5858 20.75 13.0001C20.75 17.8325 16.8325 21.7501 12 21.7501C7.16751 21.7501 3.25 17.8325 3.25 13.0001C3.25 8.16756 7.16751 4.25006 12 4.25006C12.4142 4.25006 12.75 4.58584 12.75 5.00006C12.75 5.41427 12.4142 5.75006 12 5.75006Z" fill="currentColor"/>
<path d="M17.1882 8.36432C17.4204 8.06575 17.394 7.64099 17.1265 7.37353C16.8591 7.10607 16.4343 7.07963 16.1357 7.31185L12.9658 9.77733L10.8944 11.2569C10.4519 11.573 10.1893 12.0832 10.1893 12.627C10.1893 13.5569 10.9432 14.3107 11.873 14.3107C12.4168 14.3107 12.9271 14.0481 13.2431 13.6056L14.7227 11.5342L17.1882 8.36432Z" fill="currentColor"/>
</svg>
