<svg width="1.5em" height="1.5em" viewBox="0 0 24 24" fill="none" xmlns="http://www.w3.org/2000/svg">
<path fill-rule="evenodd" clip-rule="evenodd" d="M7.96967 7.46967C8.26256 7.17678 8.73744 7.17678 9.03033 7.46967L13.0303 11.4697C13.3232 11.7626 13.3232 12.2374 13.0303 12.5303L9.03033 16.5303C8.73744 16.8232 8.26256 16.8232 7.96967 16.5303C7.67678 16.2374 7.67678 15.7626 7.96967 15.4697L11.4393 12L7.96967 8.53033C7.67678 8.23744 7.67678 7.76256 7.96967 7.46967Z" fill="currentColor"/>
<path fill-rule="evenodd" clip-rule="evenodd" d="M11.9697 7.46967C12.2626 7.17678 12.7374 7.17678 13.0303 7.46967L17.0303 11.4697C17.3232 11.7626 17.3232 12.2374 17.0303 12.5303L13.0303 16.5303C12.7374 16.8232 12.2626 16.8232 11.9697 16.5303C11.6768 16.2374 11.6768 15.7626 11.9697 15.4697L15.4393 12L11.9697 8.53033C11.6768 8.23744 11.6768 7.76256 11.9697 7.46967Z" fill="currentColor"/>
</svg>
