<svg width="1.5em" height="1.5em" viewBox="0 0 24 24" fill="none" focusable="false" xmlns="http://www.w3.org/2000/svg">
<path fill-rule="evenodd" clip-rule="evenodd" d="M18.8076 4.95714C17.4735 4.54554 16.0265 4.54554 14.6924 4.95714C14.2409 9.64146 14.2409 14.3583 14.6924 19.0427C16.0265 19.4543 17.4735 19.4543 18.8076 19.0427C19.259 14.3583 19.259 9.64146 18.8076 4.95714ZM20.2905 4.70865C20.7647 9.55792 20.7647 14.4419 20.2905 19.2912C20.2382 19.8257 19.8719 20.275 19.3662 20.4392C17.6731 20.9888 15.8269 20.9888 14.1338 20.4392C13.628 20.275 13.2617 19.8257 13.2094 19.2912C12.7352 14.4419 12.7352 9.55792 13.2094 4.70865C13.2617 4.1741 13.628 3.72483 14.1338 3.56065C15.8269 3.01103 17.6731 3.01103 19.3662 3.56065C19.8719 3.72483 20.2382 4.1741 20.2905 4.70865Z" fill="currentColor"/>
<path fill-rule="evenodd" clip-rule="evenodd" d="M9.30758 4.95714C7.97349 4.54554 6.52645 4.54554 5.19236 4.95714C4.74089 9.64146 4.74089 14.3583 5.19236 19.0427C6.52645 19.4543 7.97349 19.4543 9.30758 19.0427C9.75904 14.3583 9.75904 9.64146 9.30758 4.95714ZM10.7905 4.70865C11.2647 9.55792 11.2647 14.4419 10.7905 19.2912C10.7382 19.8257 10.3719 20.275 9.86616 20.4392C8.17307 20.9888 6.32686 20.9888 4.63377 20.4392C4.128 20.275 3.76171 19.8257 3.70943 19.2912C3.2352 14.4419 3.2352 9.55792 3.70943 4.70865C3.76171 4.1741 4.128 3.72483 4.63377 3.56065C6.32686 3.01103 8.17308 3.01103 9.86617 3.56065C10.3719 3.72483 10.7382 4.1741 10.7905 4.70865Z" fill="currentColor"/>
</svg>
