<svg width="1.5em" height="1.5em" viewBox="0 0 24 24" fill="none" xmlns="http://www.w3.org/2000/svg">
<path fill-rule="evenodd" clip-rule="evenodd" d="M16.2803 7.21967C16.5732 7.51256 16.5732 7.98744 16.2803 8.28033L12.8107 11.75L16.2803 15.2197C16.5732 15.5126 16.5732 15.9874 16.2803 16.2803C15.9874 16.5732 15.5126 16.5732 15.2197 16.2803L11.2197 12.2803C10.9268 11.9874 10.9268 11.5126 11.2197 11.2197L15.2197 7.21967C15.5126 6.92678 15.9874 6.92678 16.2803 7.21967Z" fill="currentColor"/>
<path fill-rule="evenodd" clip-rule="evenodd" d="M12.2803 7.21967C12.5732 7.51256 12.5732 7.98744 12.2803 8.28033L8.81066 11.75L12.2803 15.2197C12.5732 15.5126 12.5732 15.9874 12.2803 16.2803C11.9874 16.5732 11.5126 16.5732 11.2197 16.2803L7.21967 12.2803C6.92678 11.9874 6.92678 11.5126 7.21967 11.2197L11.2197 7.21967C11.5126 6.92678 11.9874 6.92678 12.2803 7.21967Z" fill="currentColor"/>
</svg>
